PathFileType	4	(X/Y/Z)	Patient4_TMGait_0pt4_01_right_22.trc.trc
DataRate	CameraRate	NumFrames	NumMarkers	Units	OrigDataRate	OrigDataStartFrame	OrigNumFrames
80.000000000000	80.000000000000	4	33	mm	80.000000000000	18	       141
Frame#	Time	Sacral			L.Shoulder			Chest			R.Shoulder			Neck			R.ASIS			L.ASIS			R.Thigh.Superior			R.Thigh.Lateral			R.Thigh.Inferior			R.Patella			L.Thigh.Superior			L.Thigh.Lateral			L.Thigh.Inferior			L.Patella			L.Shank.Superior			L.Shank.Lateral			L.Shank.Inferior			R.Shank.Superior			R.Shank.Lateral			R.Shank.Inferior			R.Heel			R.Midfoot.Superior			R.Midfoot.Lateral			R.Toe			L.Heel			L.Midfoot.Lateral			L.Midfoot.Superior			L.Toe			L.Elbow			L.Wrist			R.Elbow			R.Wrist			
		X1	Y1	Z1	X2	Y2	Z2	X3	Y3	Z3	X4	Y4	Z4	X5	Y5	Z5	X6	Y6	Z6	X7	Y7	Z7	X8	Y8	Z8	X9	Y9	Z9	X10	Y10	Z10	X11	Y11	Z11	X12	Y12	Z12	X13	Y13	Z13	X14	Y14	Z14	X15	Y15	Z15	X16	Y16	Z16	X17	Y17	Z17	X18	Y18	Z18	X19	Y19	Z19	X20	Y20	Z20	X21	Y21	Z21	X22	Y22	Z22	X23	Y23	Z23	X24	Y24	Z24	X25	Y25	Z25	X26	Y26	Z26	X27	Y27	Z27	X28	Y28	Z28	X29	Y29	Z29	X30	Y30	Z30	X31	Y31	Z31	X32	Y32	Z32	X33	Y33	Z33	

18	28.542500000000	769.048248956121	1003.320121778268	404.474950052121	979.671530588036	1427.382958367194	222.814641544947	1058.812863748078	1362.175511468087	393.711411647880	957.591307903450	1449.365323877889	554.603335941944	963.253720010289	1494.792775618119	372.876514474335	986.690452027802	951.112046976259	547.214237896862	998.858355791161	963.225975745203	271.546824499274	1061.548619664172	766.559666089850	524.078952010804	1013.294033832605	650.421683771710	598.491152813180	1097.196399840197	608.150136346527	515.909608947838	1128.495005068543	532.032639382709	532.820091839816	1022.570712045588	740.610702008737	308.462071748312	925.448998910812	633.043233903292	237.171560103118	990.071151552750	547.668866466326	308.918233949118	979.950232235076	479.094707961310	318.136596358667	948.440574183644	410.149544410673	308.192668143653	852.038024591834	303.385801592847	254.552600910492	887.456478300384	188.988012199789	328.754040005379	1120.686424984578	444.323078269427	548.186825449273	1079.672730425738	330.069171563873	619.081656719943	1152.831443665687	247.439560876440	566.531024518055	1072.843584592660	53.871380966210	548.161719979979	1232.554697994539	138.122276671887	579.692134863708	1160.208063017131	58.543367877140	618.028364542199	1359.785942427475	109.262373713327	600.607584577759	747.484473157454	39.389448744920	368.586880512345	821.353596393449	35.391098461462	288.264279786585	905.687539946860	95.845970831678	315.887236236237	1033.704159431078	40.638015642815	286.703468693577	975.562021236070	1083.023014730721	93.044377637159	1164.904295332160	904.995657702699	120.920637185219	815.061855427093	1144.584739394323	687.921487258554	801.825365700917	891.215384605167	746.610513660333	
19	28.555000000000	771.467499124150	1001.956279186710	406.349292045915	979.905441244179	1426.718619745550	224.841812194057	1059.698468166417	1361.859137999902	395.741988896072	958.175528060372	1448.537127274461	556.727960274335	963.364173308470	1494.000484520926	374.963115698110	989.389586603254	949.699039201726	548.833461207219	1001.058213052835	962.641650967685	273.089702378568	1063.727854737117	764.565807667943	525.454324113627	1013.606436079532	647.614133711911	598.188184682285	1098.099553845020	605.827463759288	516.346378870827	1127.655212895609	529.047174711272	532.170347291968	1023.609687943557	739.501912605349	309.184364038096	925.427767576855	632.499920583523	237.937198147812	989.661730682715	546.579203024413	309.253573133994	979.137793865455	477.775036474923	318.339060350612	946.802992628677	409.100330093577	308.464785837079	849.135801393604	303.392596469832	254.831871406120	883.512757622135	188.529711953546	328.791449929376	1119.176299304725	440.670351506315	547.007451221653	1076.630253529520	326.803858149292	617.276714009835	1148.339886352306	243.491825695447	564.361768750933	1065.561016673606	51.802538864355	545.461538589430	1226.186277228026	133.286603951633	577.000028625198	1152.715304919605	55.356834000676	615.494091824334	1352.734329209286	102.728386776193	598.212542817809	742.486949897454	39.479217397424	368.570815813979	816.337633834886	35.423296381271	288.278510363006	900.741412186238	95.811643237730	315.846846247252	1028.681448013923	40.478718263031	286.649829301783	976.547522259741	1082.131965490292	95.557839916242	1165.085481074138	903.056898336199	123.116298848396	816.203088998944	1142.755435291225	688.125518138275	804.172700315811	888.961654482831	745.538281959057	
20	28.567500000000	773.995496758196	1000.453807471715	408.500399777126	979.943844684091	1426.003253250491	227.037466027826	1060.557886118743	1361.551306086586	397.979131312590	958.726399032208	1447.594864586931	559.044252785728	963.310522675096	1493.142215735179	377.242674447702	992.396126992189	948.232474744143	550.473122094027	1003.293006385411	962.010258640025	274.645939086534	1066.466789671336	762.612387426926	526.773888945120	1014.277498673990	644.745404185354	597.691085044528	1099.556056851636	603.496155415302	516.770034804175	1127.172555930525	525.714014175634	531.363626532991	1024.842496415336	738.353188939634	309.751508180029	925.435188077381	631.898553073076	238.797472806085	989.448509344237	545.432356111203	309.537532119829	978.569386839454	476.352882316479	318.509715421574	945.320588675871	407.960620599556	308.756251294107	846.273620702985	303.401648222825	255.185987660022	879.600353297797	188.042487911547	328.849719447239	1117.561572599136	436.626148836124	545.639577079861	1072.898095135870	323.441313056699	615.416503624610	1142.545992897105	239.004451416604	562.090769747606	1055.746274470913	49.862547252336	543.031764013472	1217.821990531021	127.598828222738	574.219215286873	1142.805891798366	51.910551970640	613.123059406410	1343.554512404636	94.603464200194	595.597497971618	737.488840811700	39.560153138100	368.564067130670	811.322978529883	35.461864724833	288.304896867371	895.797881186675	95.785267888117	315.813992550529	1023.659413233903	40.322440644013	286.586703899550	977.172444814213	1081.146876444015	98.287082750828	1164.715550351086	900.753112475068	125.268573674503	817.940954390084	1140.513415121235	688.631890492831	807.681821399489	886.190395292678	744.444783475693	
21	28.580000000000	776.609564734141	998.841640783645	410.907450826198	979.806363853721	1425.255388152391	229.408477096212	1061.408806779347	1361.259135481248	400.422713358363	959.279809010576	1446.545664411123	561.555294446613	963.132826680528	1492.235983888623	379.723721680384	995.686896804121	946.738841598789	552.106561606003	1005.566517470429	961.342324795430	276.203058739233	1069.607335437034	760.612462476155	528.005575661357	1015.245752753976	641.884943232535	597.093911848366	1101.342769047234	601.118388703988	517.119923327358	1126.916947586150	522.106926622451	530.406903848124	1026.289851515354	737.180466453440	310.158779191472	925.473294952303	631.252528550810	239.765288004881	989.431071645770	544.238678812403	309.782186009443	978.245772758825	474.836951061653	318.657913926258	943.989399804042	406.745316655103	309.078095591907	843.451058789254	303.432828699202	255.624561479961	875.719133283825	187.541950523111	328.929513447290	1115.861542307507	432.350118706170	544.166719025548	1068.742437444701	320.051146670967	613.597681895754	1135.922712228092	234.208194270818	559.814607930895	1044.324782886284	48.048139836239	540.959994091884	1208.183527914347	121.496537152904	571.466826354883	1131.402056810013	48.412714560363	611.004182708253	1333.066518633513	85.630472963228	592.863422234808	732.490066294023	39.656217694169	368.563694504788	806.313976310229	35.516930431998	288.342350544022	890.863694603832	95.769632387111	315.788915262293	1018.644272246586	40.163650924355	286.512200922064	977.435171644304	1080.084478845461	101.222546362091	1163.779241002234	898.105686109623	127.351551172409	820.260544127726	1137.919706830275	689.488154261303	812.342647941559	882.971498539593	743.365567382238	
